<svg width="141" height="21" viewBox="0 0 141 21" fill="none" xmlns="http://www.w3.org/2000/svg">
<path d="M106.921 20.2707H109.675L102.413 0.79248H99.4909L92.2283 20.2707H94.9831L96.5692 15.902L97.4596 13.4812L100.938 3.88118L104.444 13.4812L105.334 15.902L106.921 20.2707Z" fill="white"/>
<path d="M75.0454 20.2707H77.8002L70.5376 0.79248H67.6159L60.3533 20.2707H63.1081L64.6941 15.902L65.5846 13.4812L69.0628 3.88118L72.5689 13.4812L73.4594 15.902L75.0454 20.2707Z" fill="white"/>
<path d="M14.6922 20.2707H17.447L10.1844 0.79248H7.26264L3.05176e-05 20.2707H2.75482L4.3409 15.902L5.23134 13.4812L8.7096 3.88118L12.2157 13.4812L13.1061 15.902L14.6922 20.2707Z" fill="white"/>
<path d="M45.15 3.01857L35.717 17.822H45.3726V20.2707H32.6561V18.0168L42.0613 3.24118H32.9065V0.79248H45.15V3.01857Z" fill="white"/>
<path fill-rule="evenodd" clip-rule="evenodd" d="M99.0286 12.0487C115.017 9.86949 127.659 5.80526 134.85 1.16343L137.704 3.18715C130.169 8.05125 117.13 12.2035 100.866 14.4203C85.6617 16.4926 70.3757 16.5005 57.9084 14.7997C51.6811 13.9501 46.0628 12.6615 41.4722 10.9393C36.8817 9.21719 33.1239 6.98259 30.9937 4.23278L33.9662 3.82763C35.3962 5.67356 38.0844 7.40087 42.102 8.90811C46.1196 10.4153 51.2717 11.6236 57.2535 12.4397C69.2046 14.0701 84.092 14.0845 99.0286 12.0487Z" fill="url(#paint0_linear_48_445)"/>
<path d="M140.3 20.2707H137.434L133.065 12.8134H128.474V20.2707H125.886V0.79248H133.677C135.347 0.79248 136.766 1.37683 137.963 2.57335C139.159 3.74205 139.743 5.16118 139.743 6.83074C139.743 8.08292 139.354 9.25161 138.603 10.2812C137.851 11.3107 136.905 12.062 135.709 12.4794L140.3 20.2707ZM133.677 3.21335H128.474V10.476H133.677C134.651 10.476 135.458 10.1142 136.126 9.41857C136.822 8.69509 137.156 7.83248 137.156 6.83074C137.156 5.829 136.822 4.96639 136.126 4.27074C135.458 3.57509 134.651 3.21335 133.677 3.21335Z" fill="white"/>
<defs>
<linearGradient id="paint0_linear_48_445" x1="34.817" y1="0.468697" x2="139.292" y2="-7.28514" gradientUnits="userSpaceOnUse">
<stop offset="0.0548049" stop-color="#81ABEC" stop-opacity="0"/>
<stop offset="0.297069" stop-color="#81ABEC"/>
<stop offset="0.482591" stop-color="#774FC9"/>
<stop offset="0.541559" stop-color="#774FC9"/>
<stop offset="0.746128" stop-color="#FFCB92"/>
<stop offset="0.836961" stop-color="#FFCB92" stop-opacity="0.5584"/>
<stop offset="0.920649" stop-color="#FFCB92" stop-opacity="0"/>
</linearGradient>
</defs>
</svg>
